<mxfile host="app.diagrams.net" modified="2024-04-08T07:35:20.516Z" agent="Mozilla/5.0 (Windows NT 10.0; Win64; x64) AppleWebKit/537.36 (KHTML, like Gecko) Chrome/120.0.0.0 Safari/537.36" version="24.2.2" etag="yn-qE8L7jYAzN_ZafNTe" type="github">
  <diagram name="Page-1" id="3_lEQKhH8ztUHhNPUwoY">
    <mxGraphModel>
      <root>
        <mxCell id="0" />
        <mxCell id="1" parent="0" />
      </root>
    </mxGraphModel>
  </diagram>
</mxfile>
